<svg xmlns="http://www.w3.org/2000/svg" viewBox="0 0 256 256">
  <defs>
    <linearGradient id="bg" x1="0" y1="0" x2="1" y2="1">
      <stop offset="0%" stop-color="#ffe7a3"/>
      <stop offset="100%" stop-color="#f1a12f"/>
    </linearGradient>
  </defs>
  <circle cx="128" cy="128" r="120" fill="url(#bg)"/>
  <circle cx="80" cy="58" r="22" fill="#5a3721"/>
  <circle cx="176" cy="58" r="22" fill="#5a3721"/>
  <circle cx="128" cy="132" r="78" fill="#ffd48a"/>
  <ellipse cx="98" cy="118" rx="16" ry="22" fill="#4a2c17"/>
  <ellipse cx="158" cy="118" rx="16" ry="22" fill="#4a2c17"/>
  <circle cx="98" cy="118" r="7" fill="#fff"/>
  <circle cx="158" cy="118" r="7" fill="#fff"/>
  <circle cx="100" cy="119" r="4" fill="#111"/>
  <circle cx="160" cy="119" r="4" fill="#111"/>
  <ellipse cx="128" cy="160" rx="28" ry="20" fill="#fff3df"/>
  <path d="M112 154h32l-16 17z" fill="#7f4020"/>
  <path d="M98 182c11 9 49 9 60 0" stroke="#7f4020" stroke-width="8" fill="none" stroke-linecap="round"/>
  <g fill="#6e4424">
    <circle cx="70" cy="112" r="7"/><circle cx="82" cy="90" r="7"/><circle cx="186" cy="104" r="7"/>
    <circle cx="176" cy="84" r="7"/><circle cx="130" cy="86" r="6"/><circle cx="148" cy="90" r="6"/>
    <circle cx="104" cy="92" r="6"/><circle cx="62" cy="146" r="8"/><circle cx="194" cy="146" r="8"/>
  </g>
</svg>