<svg xmlns="http://www.w3.org/2000/svg" viewBox="0 0 256 256">
  <defs>
    <linearGradient id="bg" x1="0" y1="0" x2="1" y2="1">
      <stop offset="0%" stop-color="#d4fff3"/>
      <stop offset="100%" stop-color="#16a085"/>
    </linearGradient>
  </defs>
  <circle cx="128" cy="128" r="120" fill="url(#bg)"/>
  <path d="M80 170c0-53 28-92 70-92 34 0 56 20 56 46 0 50-44 78-95 78-18 0-31-11-31-32z" fill="#111827"/>
  <path d="M92 167c18 18 68 18 86 0-7 17-31 30-43 30-15 0-33-8-43-30z" fill="#fff"/>
  <circle cx="144" cy="118" r="18" fill="#fff"/>
  <circle cx="147" cy="120" r="8" fill="#111"/>
  <path d="M144 124c27-28 65-30 82-16-9 23-38 39-74 40 4-8 4-17-8-24z" fill="#ffb21a"/>
  <path d="M168 120c24-18 54-19 66-8-4 11-20 20-48 24 2-5 0-10-18-16z" fill="#ff6d1f"/>
  <path d="M92 82c14-7 32-9 53-3" stroke="#38bdf8" stroke-width="12" fill="none" stroke-linecap="round"/>
</svg>